<mxfile host="app.diagrams.net" modified="2024-07-11T10:45:32.523Z" agent="Mozilla/5.0 (Macintosh; Intel Mac OS X 10_15_7) AppleWebKit/537.36 (KHTML, like Gecko) Chrome/126.0.0.0 Safari/537.36" etag="A88c1KSia_GGX3r8MmYI" version="24.6.4" type="device">
  <diagram name="Page-1" id="pL2jLvqEDJIfR2MOGtbK">
    <mxGraphModel dx="2417" dy="1025" grid="1" gridSize="10" guides="1" tooltips="1" connect="1" arrows="1" fold="1" page="1" pageScale="1" pageWidth="827" pageHeight="1169" math="0" shadow="0">
      <root>
        <mxCell id="0" />
        <mxCell id="1" parent="0" />
        <mxCell id="7GRKlwLP38tN3W8b4kQ0-31" style="edgeStyle=orthogonalEdgeStyle;rounded=0;orthogonalLoop=1;jettySize=auto;html=1;entryX=0;entryY=0.5;entryDx=0;entryDy=0;" edge="1" parent="1" source="7GRKlwLP38tN3W8b4kQ0-1" target="7GRKlwLP38tN3W8b4kQ0-26">
          <mxGeometry relative="1" as="geometry" />
        </mxCell>
        <mxCell id="7GRKlwLP38tN3W8b4kQ0-1" value="User" style="rounded=0;whiteSpace=wrap;html=1;" vertex="1" parent="1">
          <mxGeometry x="-360" y="712" width="120" height="60" as="geometry" />
        </mxCell>
        <mxCell id="7GRKlwLP38tN3W8b4kQ0-42" style="edgeStyle=orthogonalEdgeStyle;rounded=0;orthogonalLoop=1;jettySize=auto;html=1;entryX=0;entryY=0.5;entryDx=0;entryDy=0;" edge="1" parent="1" source="7GRKlwLP38tN3W8b4kQ0-2" target="7GRKlwLP38tN3W8b4kQ0-28">
          <mxGeometry relative="1" as="geometry" />
        </mxCell>
        <mxCell id="7GRKlwLP38tN3W8b4kQ0-46" style="edgeStyle=orthogonalEdgeStyle;rounded=0;orthogonalLoop=1;jettySize=auto;html=1;" edge="1" parent="1" source="7GRKlwLP38tN3W8b4kQ0-2" target="7GRKlwLP38tN3W8b4kQ0-29">
          <mxGeometry relative="1" as="geometry" />
        </mxCell>
        <mxCell id="7GRKlwLP38tN3W8b4kQ0-50" style="edgeStyle=orthogonalEdgeStyle;rounded=0;orthogonalLoop=1;jettySize=auto;html=1;" edge="1" parent="1" source="7GRKlwLP38tN3W8b4kQ0-2" target="7GRKlwLP38tN3W8b4kQ0-27">
          <mxGeometry relative="1" as="geometry" />
        </mxCell>
        <mxCell id="7GRKlwLP38tN3W8b4kQ0-56" style="edgeStyle=orthogonalEdgeStyle;rounded=0;orthogonalLoop=1;jettySize=auto;html=1;" edge="1" parent="1" source="7GRKlwLP38tN3W8b4kQ0-2" target="7GRKlwLP38tN3W8b4kQ0-30">
          <mxGeometry relative="1" as="geometry" />
        </mxCell>
        <mxCell id="7GRKlwLP38tN3W8b4kQ0-2" value="Admin" style="rounded=0;whiteSpace=wrap;html=1;" vertex="1" parent="1">
          <mxGeometry x="150" y="260" width="120" height="60" as="geometry" />
        </mxCell>
        <mxCell id="7GRKlwLP38tN3W8b4kQ0-18" value="" style="shape=partialRectangle;whiteSpace=wrap;html=1;right=0;top=0;bottom=0;fillColor=none;routingCenterX=-0.5;" vertex="1" parent="1">
          <mxGeometry x="150" y="712" width="120" height="60" as="geometry" />
        </mxCell>
        <mxCell id="7GRKlwLP38tN3W8b4kQ0-19" value="D1 Contacts" style="shape=partialRectangle;whiteSpace=wrap;html=1;left=0;right=0;fillColor=none;" vertex="1" parent="1">
          <mxGeometry x="150" y="712" width="120" height="60" as="geometry" />
        </mxCell>
        <mxCell id="7GRKlwLP38tN3W8b4kQ0-20" value="" style="shape=partialRectangle;whiteSpace=wrap;html=1;right=0;top=0;bottom=0;fillColor=none;routingCenterX=-0.5;" vertex="1" parent="1">
          <mxGeometry x="660" y="260" width="120" height="60" as="geometry" />
        </mxCell>
        <mxCell id="7GRKlwLP38tN3W8b4kQ0-21" value="D2 Admin" style="shape=partialRectangle;whiteSpace=wrap;html=1;left=0;right=0;fillColor=none;" vertex="1" parent="1">
          <mxGeometry x="660" y="260" width="120" height="60" as="geometry" />
        </mxCell>
        <mxCell id="7GRKlwLP38tN3W8b4kQ0-22" value="" style="shape=partialRectangle;whiteSpace=wrap;html=1;right=0;top=0;bottom=0;fillColor=none;routingCenterX=-0.5;" vertex="1" parent="1">
          <mxGeometry x="534" y="30" width="120" height="60" as="geometry" />
        </mxCell>
        <mxCell id="7GRKlwLP38tN3W8b4kQ0-23" value="D3 Appointments" style="shape=partialRectangle;whiteSpace=wrap;html=1;left=0;right=0;fillColor=none;" vertex="1" parent="1">
          <mxGeometry x="534" y="30" width="120" height="60" as="geometry" />
        </mxCell>
        <mxCell id="7GRKlwLP38tN3W8b4kQ0-24" value="" style="shape=partialRectangle;whiteSpace=wrap;html=1;right=0;top=0;bottom=0;fillColor=none;routingCenterX=-0.5;" vertex="1" parent="1">
          <mxGeometry x="-210" y="470" width="120" height="60" as="geometry" />
        </mxCell>
        <mxCell id="7GRKlwLP38tN3W8b4kQ0-25" value="D4 Clients" style="shape=partialRectangle;whiteSpace=wrap;html=1;left=0;right=0;fillColor=none;" vertex="1" parent="1">
          <mxGeometry x="-210" y="470" width="120" height="60" as="geometry" />
        </mxCell>
        <mxCell id="7GRKlwLP38tN3W8b4kQ0-37" style="edgeStyle=orthogonalEdgeStyle;rounded=0;orthogonalLoop=1;jettySize=auto;html=1;entryX=0;entryY=0.5;entryDx=0;entryDy=0;" edge="1" parent="1" source="7GRKlwLP38tN3W8b4kQ0-26" target="7GRKlwLP38tN3W8b4kQ0-19">
          <mxGeometry relative="1" as="geometry" />
        </mxCell>
        <mxCell id="7GRKlwLP38tN3W8b4kQ0-26" value="1.0 Contact Form Submission&lt;div&gt;&lt;br&gt;&lt;/div&gt;" style="rounded=1;whiteSpace=wrap;html=1;" vertex="1" parent="1">
          <mxGeometry x="-96" y="712" width="120" height="60" as="geometry" />
        </mxCell>
        <mxCell id="7GRKlwLP38tN3W8b4kQ0-52" style="edgeStyle=orthogonalEdgeStyle;rounded=0;orthogonalLoop=1;jettySize=auto;html=1;entryX=0;entryY=0.5;entryDx=0;entryDy=0;" edge="1" parent="1" source="7GRKlwLP38tN3W8b4kQ0-27" target="7GRKlwLP38tN3W8b4kQ0-23">
          <mxGeometry relative="1" as="geometry" />
        </mxCell>
        <mxCell id="7GRKlwLP38tN3W8b4kQ0-27" value="4.0 Manage Appointments" style="rounded=1;whiteSpace=wrap;html=1;" vertex="1" parent="1">
          <mxGeometry x="150" y="30" width="120" height="60" as="geometry" />
        </mxCell>
        <mxCell id="7GRKlwLP38tN3W8b4kQ0-43" style="edgeStyle=orthogonalEdgeStyle;rounded=0;orthogonalLoop=1;jettySize=auto;html=1;entryX=0;entryY=0.5;entryDx=0;entryDy=0;" edge="1" parent="1" source="7GRKlwLP38tN3W8b4kQ0-28" target="7GRKlwLP38tN3W8b4kQ0-21">
          <mxGeometry relative="1" as="geometry" />
        </mxCell>
        <mxCell id="7GRKlwLP38tN3W8b4kQ0-28" value="2.0 Admin Login" style="rounded=1;whiteSpace=wrap;html=1;" vertex="1" parent="1">
          <mxGeometry x="414" y="260" width="120" height="60" as="geometry" />
        </mxCell>
        <mxCell id="7GRKlwLP38tN3W8b4kQ0-48" style="edgeStyle=orthogonalEdgeStyle;rounded=0;orthogonalLoop=1;jettySize=auto;html=1;entryX=0.5;entryY=0;entryDx=0;entryDy=0;" edge="1" parent="1" source="7GRKlwLP38tN3W8b4kQ0-29" target="7GRKlwLP38tN3W8b4kQ0-19">
          <mxGeometry relative="1" as="geometry" />
        </mxCell>
        <mxCell id="7GRKlwLP38tN3W8b4kQ0-29" value="3.0 View Messages" style="rounded=1;whiteSpace=wrap;html=1;" vertex="1" parent="1">
          <mxGeometry x="150" y="470" width="120" height="60" as="geometry" />
        </mxCell>
        <mxCell id="7GRKlwLP38tN3W8b4kQ0-58" style="edgeStyle=orthogonalEdgeStyle;rounded=0;orthogonalLoop=1;jettySize=auto;html=1;entryX=0.5;entryY=0;entryDx=0;entryDy=0;" edge="1" parent="1" source="7GRKlwLP38tN3W8b4kQ0-30" target="7GRKlwLP38tN3W8b4kQ0-25">
          <mxGeometry relative="1" as="geometry" />
        </mxCell>
        <mxCell id="7GRKlwLP38tN3W8b4kQ0-30" value="5.0 Manage Clients" style="rounded=1;whiteSpace=wrap;html=1;" vertex="1" parent="1">
          <mxGeometry x="-210" y="260" width="120" height="60" as="geometry" />
        </mxCell>
        <mxCell id="7GRKlwLP38tN3W8b4kQ0-41" value="Contact Info" style="text;html=1;align=center;verticalAlign=middle;resizable=0;points=[];autosize=1;strokeColor=none;fillColor=none;" vertex="1" parent="1">
          <mxGeometry x="-210" y="710" width="90" height="30" as="geometry" />
        </mxCell>
        <mxCell id="7GRKlwLP38tN3W8b4kQ0-44" value="Login Credentials" style="text;html=1;align=center;verticalAlign=middle;resizable=0;points=[];autosize=1;strokeColor=none;fillColor=none;" vertex="1" parent="1">
          <mxGeometry x="285" y="258" width="120" height="30" as="geometry" />
        </mxCell>
        <mxCell id="7GRKlwLP38tN3W8b4kQ0-45" value="Verify Credentials" style="text;html=1;align=center;verticalAlign=middle;resizable=0;points=[];autosize=1;strokeColor=none;fillColor=none;strokeWidth=0;" vertex="1" parent="1">
          <mxGeometry x="534" y="258" width="120" height="30" as="geometry" />
        </mxCell>
        <mxCell id="7GRKlwLP38tN3W8b4kQ0-47" value="Requests Messages" style="text;html=1;align=center;verticalAlign=middle;resizable=0;points=[];autosize=1;strokeColor=none;fillColor=none;rotation=-90;" vertex="1" parent="1">
          <mxGeometry x="125" y="380" width="130" height="30" as="geometry" />
        </mxCell>
        <mxCell id="7GRKlwLP38tN3W8b4kQ0-49" value="Retrieve Messages" style="text;html=1;align=center;verticalAlign=middle;resizable=0;points=[];autosize=1;strokeColor=none;fillColor=none;rotation=-90;" vertex="1" parent="1">
          <mxGeometry x="130" y="600" width="130" height="30" as="geometry" />
        </mxCell>
        <mxCell id="7GRKlwLP38tN3W8b4kQ0-51" value="Manage Appointments" style="text;html=1;align=center;verticalAlign=middle;resizable=0;points=[];autosize=1;strokeColor=none;fillColor=none;rotation=-90;" vertex="1" parent="1">
          <mxGeometry x="120" y="160" width="140" height="30" as="geometry" />
        </mxCell>
        <mxCell id="7GRKlwLP38tN3W8b4kQ0-53" value="Store/Update Appointments" style="text;html=1;align=center;verticalAlign=middle;resizable=0;points=[];autosize=1;strokeColor=none;fillColor=none;" vertex="1" parent="1">
          <mxGeometry x="320" y="30" width="170" height="30" as="geometry" />
        </mxCell>
        <mxCell id="7GRKlwLP38tN3W8b4kQ0-57" value="Manage Clients" style="text;html=1;align=center;verticalAlign=middle;resizable=0;points=[];autosize=1;strokeColor=none;fillColor=none;" vertex="1" parent="1">
          <mxGeometry x="-35" y="258" width="110" height="30" as="geometry" />
        </mxCell>
      </root>
    </mxGraphModel>
  </diagram>
</mxfile>
